<mxfile host="app.diagrams.net" modified="2023-03-19T16:16:20.715Z" agent="5.0 (Windows)" etag="Lu0LQEg_aljGKHWYNq_A" version="21.0.6" type="github">
  <diagram id="R2lEEEUBdFMjLlhIrx00" name="Page-1">
    <mxGraphModel dx="1035" dy="544" grid="1" gridSize="10" guides="1" tooltips="1" connect="1" arrows="1" fold="1" page="1" pageScale="1" pageWidth="850" pageHeight="1100" math="0" shadow="0" extFonts="Permanent Marker^https://fonts.googleapis.com/css?family=Permanent+Marker">
      <root>
        <mxCell id="0" />
        <mxCell id="1" parent="0" />
        <mxCell id="bUCwfQKhajoaco4yRsPU-1" value="&lt;div&gt;2&lt;br&gt;&lt;/div&gt;&lt;div&gt;Consultas médicas&lt;/div&gt;&lt;span dir=&quot;ltr&quot; role=&quot;presentation&quot; style=&quot;left: 14.22%; top: 62.21%; font-size: calc(var(--scale-factor)*11.00px); font-family: sans-serif; transform: scaleX(0.920686);&quot;&gt;Construa um MER para representar os dados de um sistema para um hospital que possui um conjunto de&lt;/span&gt;&lt;br role=&quot;presentation&quot;&gt;&lt;span dir=&quot;ltr&quot; role=&quot;presentation&quot; style=&quot;left: 14.22%; top: 63.99%; font-size: calc(var(--scale-factor)*11.00px); font-family: sans-serif; transform: scaleX(0.96148);&quot;&gt;pacientes, um conjunto de médicos e um conjunto de exames. Cada paciente tem associado exames&lt;/span&gt;&lt;br role=&quot;presentation&quot;&gt;&lt;span dir=&quot;ltr&quot; role=&quot;presentation&quot; style=&quot;left: 14.22%; top: 65.77%; font-size: calc(var(--scale-factor)*11.00px); font-family: sans-serif; transform: scaleX(0.886374);&quot;&gt;realizados sob a responsabilidade de um médico.&lt;/span&gt;" style="text;html=1;strokeColor=none;fillColor=none;align=center;verticalAlign=middle;whiteSpace=wrap;rounded=0;" vertex="1" parent="1">
          <mxGeometry x="80" y="50" width="640" height="30" as="geometry" />
        </mxCell>
        <mxCell id="bUCwfQKhajoaco4yRsPU-33" value="" style="shape=image;verticalLabelPosition=bottom;labelBackgroundColor=default;verticalAlign=top;aspect=fixed;imageAspect=0;image=data:image/png,iVBORw0KGgoAAAANSUhEUgAAAwIAAAIQCAYAAAAy1dmcAABcT0lEQVR4XuzdC8wUVZr4/+UiIBBwZQUEQQGRYYaEWSKGsEsCiwMIrpfNxswI2YtOlGG8oCiMTJgoDmPmpyYOS7i5YiQaEEdGk9EVIVlxRkQXs8mIq7ggRgRBbgILcpPzz3P8n57znre7urq6TvWp6u8n6bx1O9X9dvd5znOqq+r8hQIAAADQdP7CXQAAAACg+OgIAAAAAE2IjgAAAADQhOgIAAAAAE2IjgAAAADQhOgIAAAAAE2IjgAAAADQhOgIAAAAAE2IjgAAAADQhOgIAAAAAE2IjgAAAADQhOgIAAAAAE2IjgAAAADQhOgIAKjbN998o1avXq2uueYadfHFF6u/+Iu/UL1791ZXX321+s1vfqOOHj3qFgEAAA1GRwBAXQ4ePKjGjRunRo8erZ5//nn1xRdf6OXy95VXXlE333yz7hz89re/dUoCAIBGoiMAIDH5JUA6ATNnztTTlWzZskVddtllatmyZe4qAADQIHQEACS2atUq/UtAVCfA+OSTT9RFF12ktm7d6q4CAAANQEcAQGKTJ09WL7zwgru4ol//+tfq1ltvdRer06dPqwceeEBdcsklqmvXrmrChAnq008/1evOnDmjZs+erXr16qX69u2r5syZo5cJuRZBHk8//bTq0aOHGj9+vDpw4IC9awAAUAEdAQCJSXJurgmIY8eOHerSSy91F6v58+frhH7x4sVqw4YNelp+aRALFizQ80uWLFErVqzQ0/PmzdPrTEdg+vTpuqxM33777fauAQBABXQEACTWoUMHfTQ/rpMnT6pOnTq5i9Xll1+uk/hDhw65q9TgwYP1OjnSf+zYMT09cOBAvc50BPbt26f279+vp+VXBQAAUB0dAaCJyOkzJnmu9yEJes+ePXUSHtfOnTtVv3793MW6cyD7PHv2rLuqtM5+tG/fXq8z83KqkDxkumPHjs4eAABAOXQEgCYiiXKaZJwAuUVoXHJ6z9SpU93FpV8E5Ki+S04lknVHjhxxV5U6Ap9//nnpF4H+/fu7mwEAgDLSzQoABC3tjoAMFlYusS/n1KlTatCgQeqNN95wV6kHH3xQv7ZFixapN998U0+PGjVKr5s7d66eX7hwodq4caOeHjt2rF5nOgJyXYDcmlSm77jjDnvXAACggnSzAgBBS7sjIEfpZbAwGSegGrmg96abbnIXa9JJmDVrlt6X3DVo4sSJ+najQq4rmDFjhrrwwgtVly5d1JQpU9SePXv0OtMRePTRR1X37t3VpEmT9ABnAACgunSzAgBBS7sjIGTEYBkszCTuLknypRMwYsQIfbFvmkxHAAAA1I4WFGgivpLm5cuX68HCZJyAbdu26WXbt29XS5cu1ef/yy8BaXcCBB0BAACSowUFmojPpPmDDz7Qg4XJrwPyPHKR77Rp08peEwAAABrPX1YAIDg+OwIAACBfyAqg/eEPf1A333yzvse7JIvyV+ZlOYqDjgAAADDICpqcDMIkd2Qx51qXe8h62Q75R0cAAAAYZAVNrlonwO4MpG3lypX6vvIyEux1113nroYHdAQAAIBBVtDE5LQfN+GPeqR9mtB5552n97t792719ddfu6vhAR0BAABgkBU0sR/96Eetkv2oh2xfzunTp9UDDzygLrnkEj0Y1IQJE9Snn36q15myTz/9tOrRo4caP368OnDgQKt9Ixu+3utvvvlGrV69Wl1zzTV6UDB5nt69e6urr75ajz589OhRtwgAAGgwP1kBcqFv376tEvKoh2xfzvz58/X6xYsXqw0bNujp0aNH63WmrAwoJetl+vbbb2+xDtnx8X7LSL7jxo3Tn/nzzz+vvvjiC71c/r7yyiv6onPpHMjAYwAAIBzpZwXIDTk33032ox6yfTkyYJSsP3TokLuqVHbfvn1q//79elp+ObDXITtpv9/yS4B0AmbOnKmnK9myZYseX2DZsmXuKgAA0CDpZgUIgpyC4ybx5R7t27dvtSzqUekXgU6dOun1Z8+edVeVyspdh+Qh06ZDYdYhO2m/36tWrdK/BER1AoxPPvlEjz68detWdxUAAGiAdLMCBCFuspfWNQLmFwE54u8yZT///PPSLwL9+/dvsQ7ZSfv9njx5snrhhRfcxRX9+te/1qMPu8x3Qa4xGDNmTItl7jZix44d+lqUbt266Y7o8OHD1euvv17aFgAAVJduVoAgxE320rpr0IMPPqjXL1q0SL355pt6etSoUXqdKSvXBchpITJ9xx13tFiH7KT9fvfq1at0TUAcksBfeuml7uLSd0GuMZCLye1l7jZCvl9y+9kTJ07o045kuelgAgCAeNLNChCEWpK9NMYROHXqlJo1a5a+IFTuGjRx4kR9Gogw5R999FHVvXt3NWnSJH1xqb0O2Un7/e7QoYO+a1RcJ0+e1EfwXea7cPjw4VbLKs1v3rxZf++GDRuml7dr1660DgAAVJduVoAg1JLs+R5Z2E3e0FjuZ1vPY/Dgwapnz576QvC4du7cqfr16+cuLu3Tvs7ELBPnzp1rMb9w4UI9LacSbdq0qcU6AAAQDy1nASVJiOS0H7nNoyRpUl7+ynyl04HiIkELS9qfhYwTILcIjWvJkiVq6tSp7uKy3xM5wi/LpBNqri8x28gvTzJ95MgR/ShXHgAARKPlLCASIlSS9ndDBgsrl9iXI6eQDRo0SL3xxhvuqrKJvLkIXcamuOuuu1psI9cZyPT69evVI488UrY8AACIRstZQCREqCTt74YcjZdrQ+SC3WpkULmbbrrJXayVS+QlyZeLkb/zne+0uLBdrF27Vq+T0YvtU9sAAEB8tJwFREKESnx8N2TEYBkszFwg7pJfAqQTMGLECHXs2DF3NQAAaJD0swI0nI9kD8Xg67uxfPlyPViYjBOwbds2vWz79u1q6dKl+hQf+SWATgAAAGHxkxWgoXwley4ZTXb16tX6zi1yeog8r5yqIReQyrnjR48edYugwXx+Nz744AM9WJj8OiDPI+fxT5s2rew1AQAAoPH8ZQVoGJ/JniFjAYwbN06NHj1aDwJlBpWSv3IXGbnjkHQO5LQRhCOL7waA4vJ1hzkAjUFWUEC+kz35JUA6ATNnztTTlcgFpHJ0WEYURhh8fzcAFJPvMWcANAZZQQH5TvZWrVqlfwmI6gQYcgGpnDu+detWdxUawPd3A0AxVesE2J2BSsw25UStA+APta6AfAfTyZMnqxdeeMFdXJFcQCrnjrtM4JdrDMaMGaOXHThwQM/3799f/du//RuNQ8p4LwHUyr59b5xHktOEiPVAY1DrCsh3MJX7t5trAuLYsWOHvnDUZQK/XGMgHQAht5mUZWYEWhqHdPFeAqjVj370o1bJftRDti/HjudffvmlvrGEHPSRu4sR64HGoNYVkO9g2qFDB3X69Gl3cUUnT55UnTp1cheXAv/hw4dLy8wFaNIx+Oyzz2gcUubrveQOUkBx9e3bt1WyH/WQ7cux4/ktt9yip+WgD4MCAo1DrSugpMG0R48erQJ6uUe7du3Uvn373OIV7dy5Uyf4LrO/s2fPlpZJJ8Msk84GjUO6fLyX3EEKKLaOHTu2ageiHrJ9OXY8N52LQ4cO6V8H7HUAskOtK6CkwTRuOTnKKwleXOY0H1e5wG8ah/3796tdu3aV3QbJpf1ecgcpIL/iHvxp3759q2VRjzi/CJjOhRz0kYe9DkB2qHUFlDSYxi0np3qUS+zLOXXqlBo0aFDZQaXKBX77GoF/+Zd/KbsNkkv7veQOUkB+xY0HPq4RsE8DlV8P7XUAskOtK6CkwTRuuSNHjuhTPeQobzWS2N90003uYq1c4JefiP/2b/9WH1FatGiRXt+5c+cW2yA59/2uV9p3kFqzZo0aOXKkvoDQ/Orkfk/seTP9zDPPqCuvvFL16dNHPfbYY2rhwoW60yH7efXVV/W2cn/z2bNn64vd5fs1Z86c0j3PzX7sO1jJulmzZqkLL7xQ73fevHmxOjxAXsSNB2ndNcisF+agj8T5u+++u8U6ANmh1hVQ0mBaSzk531tO9ZCjvOXILwES6EeMGKGOHTvmrq7or/7qr9T/+3//T19c+qc//Um/pvHjx7ubIaFaPuM40r6DlJxitG7dOj0tvyTZ69xt7ek777xTvf3226V5ufjwnXfe0dPyPRULFizQ8/Jr04oVK/S0JPf2fuw7WD388MN6mXQqnnjiCT39+OOPf/sigAKw61U1aY8jIPVMYrucnmQO+tTyegCkg1pXQEmDaa3lli9fro+6ylHebdu26WXbt2/Xt4K7/PLL9S8BtXQCxH/8x3+ov/7rv1ZdunTRdxr6u7/7O/Xxxx+7myGhWj/jatK+g5QkB9KJlOm2bdu2WOdu65azzzOWX5bkiL69n8GDB5e2le+lTA8cOLDFfuw7WA0YMKC0L7k4XqaHDBlSWg/knV2vqmFkYaCY4kcB5EYtwd2WpNwHH3ygT/WQo65SXo72Tps2rew1AWicPXv26M6V23DX85DEumfPnqneQarcvD197ty5iuuqzUsHxMybh1wEaW9X7g5WktiYTgWnqaFI7LoSl5z2I3cCM+f4y1+Zr3Q6EICw1R4FELwkwV0kLYewyc/v8tm2adMm9c/Y1x2k7Hm5Xa1JyOVuUva6qHLuvHRSZVqucXG55YTp3MovAnv37tXTQ4cObbENkGfudx5A8yEKFFDS4J60HML08ssv69Ni5HOVU7VE2p+xrztI2fPy2mV6w4YN6q677mqxLqqcOz937lw9Lef8b9y4UU+PHTu21XaGvb25RkCmgaJwv/MAmg9RoICSBvek5RAeM7qvnPryxz/+sbQ87c/Y1x2k7Pn169fri5K/853vtLh7ibtdtXm5PkHOYZa7AMlpUlOmTNGnTLnbGdJxkbuZmLsGPfTQQ/rUJKAo3O88gOZDFCigpME9aTmEQ+6eY5Lackm3j8/Y1x2kAPjlIx4AyBeiQAElDe5Jy6Hx5M5KZqTOv/zLv1THjx93N9F8fcY+7iAFwC9f8QBAfhAFCihpcE9arlYyKNPq1av14E3mFJbevXvrC0/lnHMZQwDxyZF2eQ/lYmBJvKP4/Iy5gxSQLz7jAYB8IAoUUNLgnrRcLQ4ePKjGjRunRo8erQdvMoNRyV+5+4zchk46B3K6CaJJ0m/uBCSdgTiy+IwB5ENW8YCDP0C4sokCyFTS4J60XFzSGEgnQEaPlelK5MJTOaq8bNkyd1Wq5P/1/T/7IKf9yOk/8trldKBaBlzL4/8LwI8s4gEHf4Cw+Y8CyFzS4J60XFyrVq3SjUFUJ8CQC0/lnPOtW7e6q1KTx46AnGtvXrdcGFyrvP2/APzxHQ98HfyJG7vltERzi2AA5VWvScidOAGynKTl4po8ebJ64YUX3MUVyYWncs65SwaWmj17tr6lZN++fdWcOXNKw9qbBmLNmjVq5MiRqn///qUBr2RgKPkpWpbJaTV2YxJnn/Kz9pgxY6puf/r0afXAAw+oSy65RHXt2lVNmDBBffrpp6Vys2bNKt2Sct68eS0ayAcffLA0bZNbgMqtQOV1yNGzpHx/xgDyw3c88HXwJ25HIO52QDOjhhRQ0sCXtFxckjSbn4Xj2LFjh77g1LVgwQL9WmWU2hUrVuhpSaiFCfxyBGrdunV6WgaxErfcckupnNxP3m4k4uxTftY+cOBA1e3nz5+v5xcvXqwHwZJpaQzFww8/rOftQaoef/xxvc48l9sZMANqyeBgMkhYPcz/CwC+40FaB3+iDuJIOyEHW7p166Y6deqkhg8frl5//fXSNnG2BZqZ3yiAhkga3JOWi6tDhw76aHlcMgCUBGvX4MGD9WuVpFxuSSnTAwcO1OtM0Jd1cv96k0ALOXIv84cOHdINi91AxNnn4cOHv30BVbY3ibs8j2vAgAF6nTz/vn379PSQIUNK681zSWdAOg3mYuDx48dbe0nO/L9p42JAIH98xQMjrYM/UQdxRo0apVauXKlOnDihTzGS5dJhEPZ21bYFmpXfKICGSBrck5br0aNHKeBWekji3LNnT538xrVz507Vr18/d7HuHLj7l9NmhJk37Hlzn/2zZ8/qh70uzj6ljBG1vVlnb29IZ0jWySlC8pDpzp07l9abfUlHQP7KCLhm9Ns0yD7TxsWAQD75iAe2tA7+RB3EEZs3b9anXA4bNkwvb9eunV7ubhe1LdCs/EYBNIQb+OLyXU6ODpvz9eOQoz9Tp051F+sjRvKcR44ccVe1Cvz2vHQqZFqO4kuSaq+rZZ8ianvzi8D+/fvdVaV77EtjtnfvXj09dOjQ0nqZd08NSpP7f9QrrYsBy73HcSQtByB5PIhz8EcekmSncfAn6iCOnGYp0/Jr5KZNm1qss6erbQs0K2pAASUNbL7LySki5RL7cuS0Hjm3v9xgVHPnztXPKUF948aNetrcGcIN7Pb89OnT9fSiRYvU3Xff3WJdLfustr05mi/P8+abb+pp+UnaLWeuEZBpw2cnQLj/R73Suhiw3HsMwK+kdS5uubQO/kQdxJEbMsi0HJSRh73OjStR2wLNihpQQEkDm+9yEnjlFBE5OlyNJO1yq8xy5OdjOU9U7rwjp85MmTKldPqMG9jteWlE5Fx7OZolSbq9rpZ9VtteOjHy07P8r9LwTJw4USfBZp10Qsxdgx566CF17tw5e9deuf9HvdK6GNC8x3IhoJyzKwmE/Goioi7wsz8bM23f3ancsmp3bgKaRdJ4ELdcWgd/og7imF9n169frx555JEW6y644AI9ba7vitoWaFbUgAJKGtiyKCfnicspIiYxdkljIEFfRsqVi3CRrlo+qzjSuhjQNMh33HGHvtuSTMsFgiLqAj+7ITfT9t2dyi2rducmoFkkjQdxy6V18CfqIM7atWt1HJKbE7gXEj/77LP6QM2kSZOqbgs0K2pAASUNbFmVW758uT5FRI4Ob9u2TS/bvn27Phos59dLY0AnwI9aP6tq0roY0DTI8iuAXFsh03KBoFHpAj+7ITfT9t2dyi2rducmoFkkjQe1lOPgDxC2+LUZuVFLkLZlWe6DDz7Qp4iYi2flKPG0adPK/iyM9JjEOI1HmneCMvuUCwHN3ZTkAkERdYFfuWn7bk3lllW7cxPQLEzdqVWt5Tj4A4SrttqMXKg1SBtZl0P20v6s0roY0CTscpReTgOQaXP6T9QFfpWmjXLLqt25CWgWbt2IK0k5Dv4AYaq9NiN4SYK0yLocspf2Z5XWxYAmYb/nnnv0LUZlWs7hFVEX+FWaNsotq3bnJqBZuHUjrqTlAISH2lxASYN01uWQvbQ/q7QuBjQJu1zcJ6cQ/N3f/V1pHIaoC/wqTRvlljX6zk1AKNy6EVfScgDCQ20uoKRBOutyyJ6Pz4qLAYF8ShoPkpYDEB5qcwElDdJZl0P2fH1WXAwI5E/SeJC0HIDwUJsLKGmQzrocsufzs+JiQCBfksaDpOUAhIfaXEBJg3TW5ZA9PisARtJ4kLRcrWTE79WrV+tbB8u1SPK8cq2Q3K1MblRw9OhRtwiAGmVTm5GppEE663LIHp8VACNpPEharhYHDx5U48aNU6NHj9Yjg5sRzOWv3LL45ptv1p0DuUYJQHL+azMylzRIZ10O2eOzAmAkjQdJy8UlvwRIJ2DmzJl6uhK5W5mciii3HC5HTkscO3ZsaV5et+/XDuQNNaKAkga6rMshe3xWAIyk8SBpubhWrVqlfwmI6gQYcrcyuVHB1q1b3VUk/kAM1JACShr4si6H7PFZATCSxoOk5eKaPHmyeuGFF9zFFcndyuRGBTbTCbA7A+Wmn376adWjRw81fvx4Paq5OHPmjJo1a1ZprJF58+bF6pQAeeS3NqMhkgbprMshe74+Ky7qA/InaTxIWi4uGUDQXBMQx44dO/Rdylx24u/Om2kZ42Tx4sV6+vbbb9frHn74YT1vjz7++OOPl/YDFInf2oyGSBqksy6H7Pn4rLioD8inpPEgabm4OnTooE6fPu0urujkyZOqU6dO7uJYHYF9+/bpUcxl+pJLLtHrBgwYoOe//PJLvV6mhwwZUtoPUCR+azMaImmQzrocspf2Z5XWRX1R3MbcFrUuStJyQJEkrQNJy8kpOKbuVXoMHjxY9ezZUyfgce3cuVP169fPXdyqntvzZlpOA5KHTHfs2FGvk46Iu65z586l/QBFkqw2I2h24KtF1uWQvbQ/q7Qu6kvKbejjSloOKJKkdcB3OTmlUH5NjGvJkiVq6tSp7uJW9dyeN9Off/556ReB/v3763VmUET5RWDv3r16eujQoaX9AEUSr1YiV+IGW1fW5ZC9tD+rNC7qE3IawAMPPKB/mu/atauaMGGC+vTTT/U6u/GWhlmSBGmwly5d2mKdnCcs5bp166ZPExg+fLh6/fXXq5aTI36zZ8/W5yX37dtXzZkzRy8Dii5pPPBdTq4rKpfYl3Pq1Ck1aNCgsiOYX3DBBfo5Dx8+rOftem+m5boA+aVSpu+44w69bu7cuXrevkZApoEiilcrkStxg60r63LIXtqfVVoX9c2fP1+/Nrlob8OGDXpafmkQduN9yy236Gk5AjhjxowW60aNGqVWrlypTpw4oU9FkuXmCF9UuQULFpTWrVixQk/LXUKAoksaD3yXO3LkiL6uSOpxNXKx70033eQu1p599lnVpUsXNWnSJD1v13sz/eijj6ru3bvrbeR6JyGdi7vvvrt016CHHnpInTt3rrRfoEji1UrkStxg68q6HLKX9meV1kV9l19+uX5thw4dcle1aLzliL3ZTo7y2+vE5s2b9W3/hg0bppe3a9euajk5J1mm5daBx44d09MDBw4s7RMoqqTxIItycnMBOUVHTiksR5J16QSMGDFC19taubEDaFbUggJKGtyyLofsxblYL+4jzYv6pHMg+zx79qy7qvR8Qi7mM9vJw14nP93LtNzCdNOmTbHLmee2H+3bt//2yYECM3WgVlmVW758ub6uSE4p3LZtm162fft2fXqfHDyQXwKSdAKEHQOAZkYtKKCkwS3rcsi/tC7qM78IyEV7LrvBlk6ETMvRezklyV4n1xbItJxWII+45eRUJVMOaCZJY3eW5T744AN9XZG5gFfq67Rp08peEwCgdrXXSgQvSbAVWZdD/qV1Ud+DDz6ov0eLFi1Sb775pp6Wc/6FnbTLqQBmOzmHt1xCv379evXII4/ELmdfGLhx40Y9PXbsWL0OKLKksTvrcgD8oVYWUNJgm3U55F9aF/VJJ0HO7Zd9yZH9iRMnls4NtpN2OaI/fvx4fYqTJPX2urVr1+qLl2VEY/eC4Khyct2CbC8XBsqFhVOmTFF79uzR64AiSxq7sy4HwB9qZQElDbZZl0Mx+L6oD4AfSWN31uUA+EOtLKCkwTbrcigOnxf1AfAjaezOuhwAf6iVBZQ02GZdDsXCRX1AviSN3VmXA+APtbKAkgbbrMsBABonaezOulytvvnmG7V69Wp9K2G57kieV64dkrucyQ0Ojh496hYBmlY2tRKZShpssy4HAGicpLE763K1kNGBx40bp0cmf/7550sjn8tfudXxzTffrDsHcm0TADoChZQ02GZdDgDQOEljd9bl4pJfAqQTMHPmTD1didzlTE5hXLZsmbsqU/J+mPdETqFMettiez9ArfjmFFDSgJB1OQBA4ySN3VmXi2vVqlX6l4CoToAhdzmTGxxs3brVXZUZO4GvJ5mvpyzAN6eAkgaErMsBABonaezOulxckydPVi+88IK7uCK5y5nc4MBlEmu5xmDMmDF62ZkzZ9Ts2bP1WCV9+/ZVc+bM0cvEe++9p7eTMVC6d++uJk2apHbu3NliX0a55N99iB07dqgJEyaobt26qU6dOqnhw4er119/Xa/78ssv9fUO/fv313dms8vJa5IxWWRclD59+qh58+bF6hihefmtlWiIpME263IAgMZJGruzLheXJOnmmoA4JNmWu5u5TGIt1xjIYIRiwYIFetmSJUvUihUr9LQk2eKKK67Q8x999JF67bXX9HS5kdHd+UrTQsqvXLlSnThxQp/KJOsk8Re33HJL6bW4gyc+/PDDelpGSn/iiSf09OOPP17aL+DyWyvREHYwqUXW5QAAjZM0dmddLq4OHTqo06dPu4srklHF5Wi7yyTWhw8fLi0bPHiwXiYdAxkTRaYHDhyo10kHROblqP2TTz6pjh8/XipnJ+nufKVpY/Pmzfro/rBhw/S6du3a6eXyi4TMHzp0SP86YJcdMGCAnpbl+/bt09NDhgyxdwu04LdWoiHcYBJX1uUAAI2TNHZnXa5Hjx6lZLfSQxL1nj176uQ3Ljl9p1+/fu7i0j7Pnj1bWiYdBvc527dvr9fJrUrlFB6zXE7LMacomWXi3LlzLeYrTQs5oi/zcnrSpk2bWqzv2LGjnpbXJw97nXSGZFpOEZKHTHfu3Lm0X8CVrFYiaHYwqUXW5QAAjZM0dodaTs6bl1uExiWn1kydOtVd3CKxNuQUIll25MiRFssNOYXnd7/7nb49qWwnnQEhR/FNYr5///4W+640LeR6A/N88rDXS+dFpuXXCTkVyl5nBnSUXwT27t2rp4cOHVraL+CKV7uQK3YwqUXW5QAAjZM0dodaTgYLK5fYl3Pq1Ck1aNCgsiOf24m1MXfuXL1MjtRv3LhRT5vbfcqdimT+97//vXr//ff1tJzOIy6//HI9v2HDBnXXXXe12Lc9fcEFF+hpczqS6XisX79ePfLIIy22nT59up5etGiRuvvuu1uss1+nuUZApoFK4tUu5IoJCLXKuhwAoHGSxu5Qy8mRcxksTC6urUaS6ZtuusldrNmJtSHXE8iFuXKkv0uXLmrKlClqz549et2uXbvU9ddfr5N5OZIvYxlIh0BIIi/XEHznO99Rf/jDH1rs255+9tln9X7ljkNi7dq1upyMiOxeECy/BIwfP16fMiWdAXuddHCkc2DuGvTQQw/pU5KASuLVLuSKG8DiyrocAKBxksbukMvJiMFyeoyME1COJMrSCRgxYoS+6BdodvFrF3KjlqBpy7ocikPuUy0XzMmFbXJETr4TciRLztmVn+uPHj3qFgHQYEljd+jlli9frgcLk3ECtm3bppdt375d33NfTtWRXwLoBADfqq12IRdqDZpG1uVQDAcPHtQ/hct5snLfbXMfb/krF+7JxXPSOZAjdQDCkTR256HcBx98oAcLMxfPyjn306ZNK3tNANDMaq9dCF6SoCmyLof8k18CpBMwc+bMyNEr5ZxdaZCXLVvmrtJk4By5cE9ui3fdddfp7xTfK8CvpHUsL+UAVEftKqCkQTPrcsi/VatW6V8CojoBhpyzKz/Xb9261V2lzjvvPP092r17t/r666/d1QA8SBq781IOQHXUrgJKGjSzLof8mzx5cmngnDjknF35ud4m3x/7YS9777339H24v//97+vOhowaKrflk2WyTu7NLSNvmjtkzJs3L1anBEDy2J2XcgCqo3YVUNKgmXU55J/c3s5cExDHjh079Lm6LrsT4M7fd999enrx4sXqV7/6lZ6+//779bqHH35Yz9v3zH788cdL+wFQWdLYnZdyAKqjdhVQ0qCZdbm0ceea7Mlw9nKUPi65F3enTp3cxZEdARmxU64fkKP+559/vhowYIA6fvy4XifTsp2Morlv3z49PWTIkNJ+AFSWNHbnpRyA6qhdBZQ0aGZdLk3cuaY+MjCNSb7jPgYPHqx69uypE/C4du7cqfr16+cuLu2z0vz8+fNLy+65557ScumIyDI5RUgeMt25c+fSegCV2XWsFnkpB6A6alcBJQ2aWZdLS1p3rpHbypkh46txE9VK3LvhhCrO/1KO/NoiHa24lixZoqZOneoubvV+2vPSyZOOSt++ffXInZLoy0iewtwaUH4R2Lt3r54eOnRoaT8AKkta7/NSDkB11K4CSho0sy6XlrTuXOMmo1HibpuXu+HE+V/KkVOuyiX25ciIntIpKncfb/f9tOdvu+02PS2dKrkWQKbNc86dO1fP29cIyDSA6pLW+7yUA1AdtauAkgbNrMulxdeda+RUk9mzZ+sLYuVo9Jw5c/Qye/uo7Srts9Jdbsx2a9asUSNHjlT9+/cvHW2v9BzGgw8+WJpOIulneOTIEX3KlfzaUs306dP1iJ7l2O+RPf/uu++qtm3bqhEjRqhz586ps2fPquHDh6s2bdqozZs3687F3XffXXo/H3roIb0dgOqS1vu8lANQHbWrgJIGzazLpcXXnWsWLFig5+V0lhUrVuhpSdzdbeNuJ6LucmO2lVOc1q1bp6flCHq15zBl6+kM2K+xVnLdhZyiI7+2lCPJunQCJJk/duyYuxpAgySt93kpB6A6alcBJQ2aWZdLi68718jFsDJ/4MABncDK9MCBA1ttG3c7EXWXG7Ot7EeSZ5mWo+HVnsMum7QzYL/GJJYvX65PuZJfW7Zt26aXbd++XS1dulRdfvnl+pcAOgFAWJLW+7yUA1AdtauAkgbNrMtVUssdbHzeuUY6C+7ztW/fvtW2cbcTUXe5cbeN+xz2tqYjYK5NiPuQU23q9cEHH+hTrswFvPKry7Rp08peEwCg8aSeJpGXcgCqo3YVUNKgmXW5Smrdn68710giK/NyHrzL3jbudiLqLjfutnGfQ8i6pL8GCPt5ATSHpPU+L+UAVEftKqCkQTPrcpXUur+07lwjt6aU5z58+LCet+9Is3HjRj1tbi9qJ+lxt3O3de9y424b9zlEPZ0AYT9vrRjIDcinpPU+L+UAVEftKqCkQTPrcpXUur+07lzz7LPPqi5duqhJkybpebmWYMaMGfqONLJ8ypQpas+ePXqdnaTH3U5E3eXG3Tbuc6Sh1vfcYCA3IL+S1vu8lANQHbWrgJIGzazLVZJkf9y5pj5J3vO0BnJrJLfzBTSTpN/9vJQDUB21q4CSBs2sy1WSdH/cuSa5JO95WgO5NRIdATSzpN/9vJQDUB21q4CSBs2sy1VSz/64c00ySd7zNAZyEyYZf+aZZ9SVV16pT5l67LHH9PUQ0nmQgdVeffVVvW25AdlknZSXaxRsEydO1MvlFKVKg7HREUAzS/rdz0s5ANVRuwooadDMulwlae8P1SV5z9MeyO3OO+9Ub7/9dmlerol455139LR07ESlAdm+973v6VugfvTRR3o7+SvzckemX/7yl3q7coOxmecCmlHS735eygGojtpVQHJv/SSyLldJ2vtDdUka2rQHcpPB0s6ePVual1usmrEWzMBqlQZke/LJJ/X0T3/6U72ddCJkXk4LixqMzTwX0IySxtq8lANQHS1gwGoZWItHvh7y2Yak1u+az4HcouYrDcj29ddf69OIunbtqj777DP9V04fOn78eORgbO5zAXlUa/3lkZ9HaG0FiocWMGASBFBM8tnKtQt55msgt6j5qAHZfvGLX+j5UaNG6b8/+9nP9PKowdjc5wLyiO9wcRWhrUDYiB4BI7gXl3y2MiCYGUwsj9IayM1NxqPmowZkk18nOnbsqJfJEf9du3a1KuMOxuY+F5BHfIeLqwhtBcJG9AgYwb24THCvd0TgRkprIDc3GY+ajxqQTdxyyy162x/+8IelZVGDsbnPBeQR3+HiKkJbgbARPQJGcC+uogR3BnIDGo+2oriK0lYgXESPgBHci6tIwZ2B3IDGoq0oriK1FQgT0SNgBPfiKlpwZyC3dB09elStXLlSXXfddap79+76r8zLcsBFW1FcRWsrEB6iR8AI7sVFcIerUvK/e/fussvpFMCgrSgu2gr4RvQIGMG9uAjuEJWS/0pJfq3boznQVhQXbQV8I3oEjOBeXAT35pVWMp/WfpB/tBXFRVsB34geASO4FxfBvbn4Ttp97x9ho60oLtoK+Eb0CBjBvbgI7sXXqOS8Uc+LxqGtKC7aCvhG9AgYwb24CO7FFFoSHtrrgR+0FcVFWwHfiB4BI7gXF8G9OPKSbOfldaJ2tBXFRVsB34geASO4FxfBPd/ynlTn/fWjJdqK4qKtgG9Ej4AR3IuL4J4/RU2ei/p/NRPaiuKirYBvRI+AEdyLi+CeD82WJDfb/1sUtBXFRVsB34geASO4F1c9wX3NmjVqyJAhevrgwYPqxz/+serVq5d+yLQsq8UVV1yh94lvkQx/i/ehMrsOGqdPn1bjxo1LFLfrrYNJnhP5UE9bAcRB9AgYwb24kgb3EydOqN69e6tZs2bp+enTp+t9LV++XC1dulRP/+QnP3FKRbv33nt1J0L23axIeqPx/vyZWwfFli1b1JgxY3T9SxK3662DSZ4T+ZC0rQDiInoEjOBeXEmD+5IlS3TZl19+Wc/LkUSZ37dvn37ItHukUpgERY46jhw5UvXv31+98soret3atWv1OulINBOS22Sa/X1z66CQ+auuuiqyI+CzDlZ6TuRf0rYCiIvoETCCe3ElDe4TJkzQZT/88EM9f/755+v5M2fO6FMTZLpz585OqT8nITNnzlTr1q3T04MGDdLr3n//fT0v+y66Zk9i09aM76dbB8WNN96oT8kz9awcn3Ww0nMi/5K2FUBcRI+AEdyLK2lwl1MSpOz+/fv1fJs2bUrfk3Pnzunptm3b2kU0k4QcOHBAnTp1qsV2e/fu1fMXXXSRU6oYmjFZbYRmeZ/dOmgz9awcn3Ww0nMi/5K2FUBcRI+AEdyLK2lwP++883RZ+QVAyNF/Mx/nF4Fy81JWpmXfRdEsSWmoivz+u3XQ5tYzm7suzTpY6TmRf/LZJmkrgLiIHgEjuBdX0uAuFxRK2a+++krPf/e739Xzcn2AOaoYdY1Aufljx47p6T59+pTW51GRk888K9rn4tZBm1vPbO66NOtgpedE/slnm6StAOIiegSsGYK72zgm8cYbb+hAmSdJg/uUKVN02Y8//ljP33fffXp+2bJl+iHT5q5B9nvrvs/2vJzrLNPXX399aX1eFC3JLLoifF5uHbRF1bOodfXWQXu/KBb5bJO0FUBcRI+AEdzjcRvYPEga3J966ild9sUXX9Tzx48fV7feeqvq2bOnftjjCMh27dq1K01XSkLMHUuee+650vqQFSGZRH4/R7cO2srVsyzqoL1fFIt8tknaCiAuokfAQgvupuF6+umnVY8ePdT48eP1hW9ix44d+o4X3bp1U506dVLDhw9Xr7/+ul4n564/8MAD6pJLLlFdu3bV23366act9inkPNnZs2frn9779u2r5syZUzoP12zn3nrPLI+7n1AkDe4nT57Upw/I/1fNa6+9poYOHeoubuX+++9X/fr10xcwhiqvSSPiydPnG2IdDK2tKKdSXH7vvfd0Z+n73/+++uabb3R7MWzYML1M1kW1LSbuP/PMM+rKK6/Un8tjjz2mFi5cqC+8lnbi1VdfjXz+0CVtK4C4wo8eTSy04G6CrgxitXjxYj19++2363WjRo3SDbcMiCOD68g6CcJi/vz5el7KbNiwQU+PHj26xT7FggUL9LTcp3vFihV6et68eS22K3frPXsf1fYTCnlNSYO7HImMk1xce+216q233nIXtyL7eumll9zFDZen5LAe8j/Jd7ljx476f2x2efjcQ6uDdvwLVVRcNqc4Shvxq1/9Sk9L50hEtS0m9t95553q7bffLs3PmDFDvfPOO3r6sssuq/r8IaunrQDiCD96NLHQgrsJsnJhqtw6T6blKL+xefNmPdqmHM2RdeYn8csvv1zPHzp0qLStYfYpBg8erKflVwZz8dzAgQNbbFfu1nv2PqrtJxTymgjureUhCUybuQvN7t271ddff+2ubmrN+H1Iwo5/oYqKy5LkS2f4wgsv1GOjDBgwQJ/2aFRqW+x24ezZs6X5L7/8snQnJtNORD1/yGgr4Fv40aOJhRbcTZCVAGuCrBzFFPJTrMxfc801atOmTaVthfycK9MSqF3ltrMf7du3b7WdO++ui9pPKOQ1Edy/1czJnvs9FXFOhXDLNINm/p5Uk4fvQbW4bH45lsc999xTWh7Vtrh1IGq+2vOHSl4nbQV8Cj96NDE7oIXABM/PP/+89IuA+YlWzv2X+SNHjuiHHYDNLwLVBuC59NJLS/tw2du58+66qP2EQl5fMwd3kro/c7+/UadCGObi0htuuKHF8mbB96cl+/sTqqi4LDc4kOvO5Nz9Cy64QI+FsmvXLr0uqm1x607UfNTzh0xeczO3FfAv/OjRxEIL7iaoynUB5laVd9xxh15nguz69evVI4880iIASwCT6UWLFqk333xTT0uyY+9TzJ07V0/LEaCNGzeWAqC7nTsvDYdMHz58uOp+QmFek3lvmu1hTof5wQ9+oE+JaWbmPbFVOhVCyCkT0jGQBMkkS81Mvj/yPbK/V830MKe8hC4qLt922216Xjpz5heAqVOn6nVRbYs9XW0+6vlDZl4nHQH4En70aGJ2QAuBCaqPPvqoPgo3adKk0q0q5Qil3I2hd+/e+kItOwDLOf2S1Fx88cU6eZk4caL65JNPWuxTyN04pKycJ9qlSxd9v+49e/a02s6df/bZZ/X28nqq7ScUzR7cOaL7Z+53O+pUCPHzn/9czz/xxBOlZc2G709L9vcjVJXi8rvvvqvP4x8xYoQ6d+6cPoVUTodr06aN7hBHtS1u3Yiar/T8oWv2tgL+hR89mlhowd0NskiO4P5nzZ7UufUq6lSI7du36+tyJGkqd81NkTX79yQKcbm4aCvgG9EjYKEFdzdhQXIE9/KaMdlz61XUqRBmVFu5DW8zaMbvQxLE5eKirYBvRI+AEdyLi+BeXbMkgW5HIM6pEPajaJrlc09TEb8H+BZtBXwjegSM4F5cBPfakBwWG59vfWgriou2Ar4RPQJGcC8ugntyJI3FwOeYHtqK4qKtgG9Ej4AR3IuL4J4Oksl84fPyg7aiuGgr4BvRI2AE9+IiuKePJDNMfC7+0VYUF20FfCN6BIzgXlwEd79IPhuL9z9btBXFRVsB34geASO4FxfBPTskpdngfW4c2orioq2Ab0SPgBHci4vg3hgkq+ni/QwDbUVx0VbAN6JHwAjuxUVwbzyS2GR438JDW1FctBXwjegRMIJ7cRHcw0JyG433J2y0FcVFWwHfiB4BI7gXF8E9XCS93+J9yA/aiuKirYBvRI+AEdyLi+CeD82WDDfb/1sUtBXFRVsB34geASO4FxfBPX+KmiQX9f9qJrQVxUVbAd+IHgEjuBcXwT3f8p485/31oyXaiuKirYBvRI+AEdyLi+BeHHlJqvPyOlE72orioq2Ab0SPgBHci4vgXkyhJduhvR74QVtRXLQV8I3oETCCe3ER3IuvUUl4o54XjUNbUVy0FfCN6BEwgntxEdybi+/k3Pf+ETbaiuKirYBvRI+AEdyLi+DevNJK2tPaD/KPtqK4aCvgG9EjYAT34iK4Q9SazNe6PZoDbUVx0VbAN6JHwAjuxUVwh6tSkr979+6yy0n+YdBWFBdtBXwjegSM4F5cBHdEqdQpIPlHObQVxUVbAd+IHgHr0aOHDgI8iveQz5bgDiANtBXFfdBWwDc6AoGbNm2aDgLN8jj//PNbLSvq4+qrrya4A0hFs7UVzfSgrYBPdARyYOHChToINMNDjoC4y4r8mD9/vvtxA0AizdRWNNuDtgK+0BFAUKQjAACAQbsA+EPtQlAI+AAAG+0C4A+1C0Eh4AMAbLQLgD/ULgSFgA8AsNEuAP5QuxAUAj4AwEa7APhD7UJQCPgAABvtAuAPtQsVrVmzRg0ZMqTFstOnT6tx48YlCsxXXHGF3meUJPsFAGTDbhcOHjyofvzjH6tevXrph0zLslrQLgCNRe1CWSdOnFC9e/dWs2bNKi3bsmWLGjNmjA7KSQLzvffeqxsL2XclSfYLAPDPbRemT5+uY/by5cvV0qVL9fRPfvITp1Q02gWgsahdKGvJkiU6+L788sulZTJ/1VVXRXYEzDo5wjNy5EjVv39/9corr+h1a9eu1eukwaik0n4BAI3ltgtyNF/m9+3bpx8y7f6KLGgXgHBRu1DWhAkTdPD98MMPS8tuvPFG/bNvnI7AzJkz1bp16/T0oEGD9Lr3339fz8u+K6m0XwBAY7ntwvnnn6/nz5w5o08blenOnTs7pWgXgJBRu1CW/PwrwXf//v3uqlgdgQMHDqhTp07p6bZt2+p1e/fu1fMXXXSRU+rPKu0XANBYbrvQpk2bUsw+d+5ci3hvo10AwkXtQlnnnXeeDr5ypMcVpyNQbl72JdOy70oq7RcA0FhuuyBH/818nF8Eys3TLgCNRe1CWXLxlgTfr776yl3VKqjb3HX2/LFjx/R0nz59SutdlfYLAGgst1347ne/q+fl+gBzZD/qGoFy87QLQGNRu1DWlClTdPD9+OOP3VWRQT1qnZxXKtPXX399ab2LgA8AYXLbhfvuu0/PL1u2TD9k2tw1iHYByAdqF8p66qmndPB98cUX3VVlg3q7du0qrjPz5u4Qzz33XGm9i4APAGFy24Xjx4+rW2+9VfXs2VM/7HEEaBeAfKB2oayTJ0/qn2pnz57trmrltddeU0OHDnUXt3L//ferfv366YvFKiHgA0CYaBeA4qF2oSI56hMnkF977bXqrbfeche3Ivt66aWX3MUtEPABIFy0C0CxULsQFAI+AMBGuwD4Q+1CUAj4AAAb7QLgD7ULQSHgAwBstAuAP9QuBIWADwCw0S4A/lC7EBQCPgDARrsA+EPtQlAI+AAAG+0C4A+1C0Eh4AMAbLQLgD/ULgSFgA8AsNEuAP5QuxAUAj4AwEa7APhD7UJQCPgAABvtAuAPtQtBIeADAGy0C4A/1C4EhYAPALDRLgD+ULsQFAI+AMBGuwD4Q+1CUAj4AAAb7QLgD7ULQSHgAwBstAuAP9QuBIWADwCw0S4A/lC7EBQCPgDARrsA+EPtQlAI+AAAG+0C4A+1C0Eh4AMAbLQLgD/ULgSFgA8AsNEuAP5QuxAUAj4AwEa7APhD7UJQCPgAABvtAuAPtQtBIeADAGy0C4A/1C4EhYAPALDRLgD+ULsQFAI+AMBGuwD4Q+1CUAj4AAAb7QLgD7ULQSHgAwBstAuAP9QuBIWADwCw0S4A/lC7EBQCPgDARrsA+EPtQlAI+AAAG+0C4A+1C0Eh4AMAbLQLgD/ULgSFgA8AsNEuAP5QuxAUAj4AwEa7APhD7UJQCPgAABvtAuAPtQtBIeADAGy0C4A/1C4EhYAPALDRLgD+ULsQFAI+AMBGuwD4Q+1CUAj4AAAb7QLgD7ULQSHgAwBstAuAP9QuBIWADwCw0S4A/lC7EBQCPgDARrsA+EPtQlAI+AAAG+0C4A+1C0Eh4AMAbLQLgD/ULgSFgA8AsNEuAP5QuxAUAj4AwEa7APhD7UJQCPgAABvtAuAPtQtBIeADAGy0C4A/1C4EhYAPALDRLgD+ULsQFAI+AMBGuwD4Q+1CUAj4AAAb7QLgD7ULQSHgAwBstAuAP9QuBIWADwCw0S4A/lC7EBQCPgDARrsA+EPtQlAI+AAAG+0C4A+1C0Eh4AMAjh49qlauXKmuu+461bZtW/1X5mU5gPSQdSEodAQAoDnZyX/37t1Lyf/u3bvLLqdTANSPrAtBoSMAAM2jUvJfKcmvdXsA0ci6EBQ6AgBQbGkl82ntB2hmZF0ICh0BACge30m77/0DRUXWhaDQEQCAYmhUct6o5wXyiKwLQaEjAAD5FVoSHtrrAUJD1oWg0BEAgHzJS7Kdl9cJZImsC0GhIwAA4ct7Up331w+khawLQaEjAABhKmryXNT/C4iDrAtBoSMAAOFotiS52f5fgKwLQaEjAACNRTL8Ld4HNAOyLgSFjgAAZI+kNxrvD4qKrAtBoSMAANkguU2G9w1FQtaFoNARAAB/SGLTxfuJvCPrQlDoCABAukhWs8H7jDwi60JQ6AgAQP1IShuL9x95QdaFoNARAIBkSD7DxOeCkJF1ISh0BAAgPpLMfOHzQmjIuhAUOgIAEI1kshj4HBECsi4EhY4AALRG0lhsfL5oFLIuBIWOAAB8i+Twz6RtMO2DPV1EfO7IUnFrEnKpyMEdAKohCSyv6Ml/JXwf4Fvz1SoErRkDPYDmVtRkzyTv11xzjRozZoxedubMGTV79mzVq1cv1bdvXzVnzhy9TOzYsUNNmDBBdevWTXXq1EkNHz5cvf766y32VWnaflTbV14V9XuCxiLrQlDoCABoBs2Q1JnE/Pnnn1cHDhzQyxYsWKCXLVmyRK1YsUJPz5s3T68bNWqUfg9OnDihtmzZotf179+/xb7caWPt2rV62Q033KDno/ZVBM3w/UE2yLoQFDe4A0ARXXbZZTre/eAHP1C7d+92VxeCSdgPHz5cWjZ48GC9TDoGx44d09MDBw4srd+8ebOaNWuWGjZsmF7Xrl07vTyqI3D8+HGd5Hft2lXt2rWrtLzSvopGvj/yPZL/Ub5XQC3IuhAUOgIAmkEzHNE1CfvZs2dLy+Q0HbPcPNq3b6/XLVy4UM/LqUSbNm2qmPy7HYGf//znev6JJ54oLYvaVxE0w/cH2ShOrUAhFClQA0AcRU3qyiXfl156qV525MiRFsuFHNE36+RRKfm3p7dv3646duyoRowY0aLDEbWvvCrq9wSNle9agcLJe6AGgHoUKdkrl3zPnTtXL5Mj9hs3btTTY8eO1etMJ2H9+vXqkUceqZj829NTpkzR0xs2bPj2Cf5/UfvKkyJ9HxCm/NUKFFoeAzUA+JD3JLBc8n3y5Ek1Y8YMdeGFF6ouXbroRH7Pnj16nVzwK3cT6t27t96mUvJfbtp+VNtX6PL+uSNf8lEr0DTyEqgBIEskh8XG54tGIetCUOgIAEA0ksZi4HNECMi6EBQ6AgAQH8lkvvB5ITRkXQgKHQEASIYkM0x8LggZWReCQkcAAOpH8tlYvP/IC7IuBIWOAACki6Q0G7zPyCOyLgSFjgAA+EOymi7eT+QdWReCQkcAALJBEpsM7xuKhKwLQaEjAADZI7mNxvuDoiLrQlDoCABAY5H0fov3Ac2ArAtBoSMAAOFotmS42f5fgKwLQaEjAABhKmqSXNT/C4iDrAtBoSMAAOHLe/Kc99cPpIWsC0GhIwAA+ZKXpDovrxPIElkXgkJHAADyK7RkO7TXA4SGrAtBoSMAAMXQqCS8Uc8L5BFZF4JCRwAAisd3cu57/0BRkXUhKHQEAKDY0kra09oP0MzIuhAUOgIA0DxqTeZr3R5ANLIuBIWOAAA0p0pJ/u7du8suJ/kH6kfWhaDQEQAA2J2Ctm3bkvwDnpB1ISh0BAAANtoFwB9qF4JCwAcA2GgXAH+oXQgKAR8AYKNdAPyhdiEoBHwAgI12AfCH2oWgEPABADbaBcAfaheCQsAHANhoFwB/qF0ICgEfAGCjXQD8oXYhKAR8AICNdgHwh9qFoBDwAQA22gXAH2oXgkLABwDYaBcAf6hdCAoBHwBgo10A/KF2ISgEfACAjXYB8IfahaAQ8AEANtoFwB9qF4JCwAcA2GgXAH+oXQgKAR8AYKNdAPyhdiEoBHwAgI12AfCH2oWgEPABADbaBcAfaheCQsAHANhoFwB/qF0ICgEfAGCjXQD8oXYhKAR8AICNdgHwh9qFoBDwAQA22gXAH2oXgkLABwDYaBcAf6hdCAoBHwBgo10A/KF2ISgEfACAjXYB8IfahaAQ8AEANtoFwB9qF4JCwAcA2GgXAH+oXQgKAR8AYKNdAPyhdiEoBHwAgI12AfCH2oWgEPABADbaBcAfaheCQsAHANhoFwB/qF0ICgEfAGCjXQD8oXYhKAR8AICNdgHwh9qFoBDwAQA22gXAH2oXgkLABwDYaBcAf6hdCAoBHwBgo10A/KF2ISgEfACAjXYB8IfahaAQ8AEAth49eugHgPSRdSEodAQAAC7aBsAPahaCQrAHALhoGwA/qFkICsEeAOCibQD8oGYhKAR7AICLtgHwg5qFoBDsAQAu2gbAD2oWgkKwBwC4aBsAP6hZCArBHgDgom0A/KBmISgEewCAi7YB8IOahaAQ7AEALtoGwA9qFoJCsAcAuGgbAD+oWQgKwR4A4KJtAPygZiEoBHsAgIu2AfCDmoWgEOwBAC7aBsAPahaCQrAHALhoGwA/qFkICsEeAOCibQD8oGYhKAR7AICLtgHwg5qFoBDsASBsa9asUUOGDGmx7PTp02rcuHGJYvgVV1yh9xklyX4BVEfNQlAI9gAQrhMnTqjevXurWbNmlZZt2bJFjRkzRsfvJDH83nvvVb169dL7riTJfgFUR81CUAj2ABCuJUuW6Dj98ssvl5bJ/FVXXRXZETDr5Mj/yJEjVf/+/dUrr7yi161du1avW7p0qVPqzyrtF0B9qFkICsEeAMI1YcIEHac//PDD0rIbb7xRHTx4MFZHYObMmWrdunV6etCgQXrd+++/r+dl35VU2i+A+lCzEBSCPQCES04Lkji9f/9+d1WsjsCBAwfUqVOn9HTbtm31ur179+r5iy66yCn1Z5X2C6A+1CwEhWAPAOE677zzdJw+c+aMuypWR6DcvOxLpmXflVTaL4D6ULMQFII9AIRLLuqVOP3VV1+5q1ol+zZ3nT1/7NgxPd2nT5/Selel/QKoDzULQSHYA0C4pkyZouP0xx9/7K6KTPaj1sn1BjJ9/fXXl9a7aBsAP6hZCArBHgDC9dRTT+k4/eKLL7qryib77dq1q7jOzJu7Bj333HOl9S7aBsAPahaCQrAHgHCdPHlSn8Ize/Zsd1Urr732mho6dKi7uJX7779f9evXT19EXAltA+AHNQtBIdgDQNjk14A4Cf61116r3nrrLXdxK7Kvl156yV3cAm0D4Ac1C0Eh2AMAXLQNgB/ULASFYA8AcNE2AH5QsxAUgj0AwEXbAPhBzUJQCPYAABdtA+AHNQtBIdgDAFy0DYAf1CwEhWAPAHDRNgB+ULMQFII9AMBF2wD4Qc1CUAj2AAAXbQPgBzULQSHYAwBctA2AH9QsBIVgDwBwDR482F0EIAVkXQgKHQEAqE2PHj107ORRvId8toBPZF0IigQ+AEB8xM3iks922rRp7mIgNUQPBIUGDQBqQ9wsLvlsx44dqxYuXOiuAlJB9EBQaNAAoDbEzeIyHYEHH3zQXQWkguiBoNCgAUBtiJvFRUcAvhE9EBQaNACoDXGzuOgIwDeiB4JCgwYAtSFuFhcdAfhG9EDDHT16VK1cuVJdd911qm3btvqvzMtyAEA0OgLFRUcAvhE90BB28t+9e/dS8r979+6yy+kUAEB5dASKi44AfCN6IDOVkv9KSX6t2wNAM6IjUFx0BOAb0QNepZXMp7UfACgaOgLFRUcAvhE9kDrfSbvv/QNAntARKC46AvCN6IFUNCo5b9TzAkAo6AgUFx0B+Eb0QGKhJeGhvR4AyAIdgeKiIwDfiB6oSV6S7by8TgCoFx2B4qIjAN+IHqgq70l13l8/AEShI1BcdATgG9EDZRU1eS7q/wWgedERKC46AvCN6IGSZkuSm+3/BVBMdASKi44AfCN6NDmS4W/xPgCIa82aNWrIkCEtlp0+fVqNGzeualJebrsrrrhC7zOpas+J/KIjAN+IHk2IpDca7w+ASk6cOKF69+6tZs2aVVq2ZcsWNWbMGJ20RSXllba79957Va9evfS+k4h6TuQbHQH4RvRoEiS3yfC+AbAtWbJEJ2cvv/xyaZnMX3XVVa0SfFel7dauXavnly5dam0dX9RzIt/oCMA3okeBkcSmi/cTwIQJE3Ry9uGHH5aW3XjjjergwYOtEnxXpe3ef/99PS/7TiLqOZFvdATgG9GjYEhWs8H7DDQnOS1IkrP9+/e7q1ol+JW42+3du1fPX3TRRdZW8cV5TuQTHQH4RvQoAJLSxuL9B5rHeeedp5OzM2fOuKtaJfiVuNvJvmRe9p1EnOdEPtERgG9Ej5wi+QwTnwtQbHJRryRnX331lbuqVYJfibvdsWPH9HyfPn2sreKL85xFY7+H7vtZJHQE4Fsxa05BkWTmC58XUDxTpkzRydnHH3/srmqVkLrzlZbL9QYyf/3111tbxVfuOYrOfQ+Lio4AfCt+Lco5ksli4HMEiuGpp57SydmLL77ormqVnMp0u3btrC3+vNzeztw16LnnnrO2ii/khNj8r88884y68sor9a8ejz32mFq4cKG+JqJ///7q1Vdf1dvKKVKzZ8/Wv7r07dtXzZkzp3QK1pdffqmuvvpqvb3cXcl+D+1pGafhgQceUJdcconq2rWrvgD7008/Le1fbvt64YUX6tcxb9489c033+h1oaIjAN/CjR5NjKSx2Ph8gfw6efKkTiIlYa3mtddeU0OHDnUXt3L//ferfv36qVOnTrmrYslDR+DOO+9Ub7/9dml+xowZ6p133tHTl112md52wYIFel5u0bpixQo9Lcm6uOWWW0rrpGyljsD8+fP19OLFi9WGDRv09OjRo/W6hx9+WM9LJ+SJJ57Q048//rheFyp5jXQE4FO40aPJkBz6YzcSoeFzB/JHfg2Ik+Bfe+216q233nIXtyL7eumll9zFsYUa34SJvwcOHFBnz54tzcsRfnORdNu2bfW2gwcPLm1rrpsYOHCgXie/EMj8oUOHdFk7rtvTl19+eWk714ABA0rPvW/fPj3tjhAdGnmNdATgU7jRowmQBGbDbiRCxvcBQBIhxzc3/kbNd+rUqTRvHu3bt9frOnbsqOelM2F3KCrtQ7ZxdejQQa+TDojphHTu3NndLCjyGukIwKdwo0dBZZXsmcB4zTXX6CHtRdT5l++9957eTs6plNc1adIktXPnzhb7evrpp1WPHj3U+PHj9REbs89K51yacmvWrFEjR47U53a+8sorVZ9vx44d+rzObt266aA+fPjw0k/G8v/YJk6cqJfLfiv9b3YjYav3/7Lf27Rl9T0BkH/l4lso3PgbNX/ppZfq6SNHjpTWG3LqlKyTGP3FF1+0KGdPm18Eyo3zIKcgyTr5RcCM3RDnl51GktdIRwA+hRs9CqQRSZ0JjM8//3wpuY06//KKK67Q8x999JE+r1WmR40a1WJf06dP1+ddyvTtt9+u10Wdc2nKzZw5U61bt05PDxo0qOrzyV95f06cOKG2bNmi10kn4nvf+55q06aNLiPkr8xLIP/lL39Z8X8zr8NV7/9lv7c+NeL7AyA/ysW3ULjxN2p+7ty5pbi7ceNGPS1JsJA4LfOLFi1Sd999d4ty9rQkzGa7N998U0+btsXev4nrMh0y8x7QEYAv4UaPAjFHIX7wgx+o3bt3u6u9MIHx8OHDpWVR51+ae2PL0fcnn3xSHT9+vFTO7EvOqZSjLDItd2QQUedcmnLyfHIRnEybc0Gjnk9s3rxZH5EfNmyY3k7uvCHbyfRPf/pTvY25YEzuIBH1v5nX4ar3/7Lf26zI90e+R/L8ZmAjHjx4NO/DxL5QmdcZZ14uxJa4Lr/EdunSRd+qdc+ePXqdxHb51VZ+vZUk3y5nT0tbI23HxRdfrH9xll+NP/nkk9I66USYX3ofeughde7cOb0uVPJ/0RGAT+FGjwJpxBFdExjt8ySjzr9cvXq1PhXHLJdA+cILL7TYl31epZyvKaLOubSDszsf9XxyhEaWyak3mzZtKm3z9ddf69vNSXD/7LPP9F8pJ52IqP/NfR2GWZ70/yp3DqoPjfj+AMiPcvENxSCfLR0B+ET0yFhWSV255Dfq/Eshp+L87ne/UzfffLPeTpJsYfb1+eefl46cy6k6IuqcS/c1uPOVnk8SfPM65WGX+8UvfqGn5ade+fuzn/1ML4/639zndZfX+3/5kNX3BED++Y5HaBz5bOkIwCeiRwP5TPbKJatR51/KfZZl/ve//716//339bScliPMvuT8+WXLlunpO+64o9U+3XMu3ddgz0c9n0nq169frx555JEW5eQ0HXP3CDniv2vXLr086n9zX4dhltf7f6XF5/cBQHH5iEcIg2nL6AjAF6JHINJOAsslq1HnX0pCLcPbX3DBBfqI/Lhx43SCLsy+Hn300dIdfg4ePKjXRZ1z6b4Gez7q+WSUTbmGoHfv3q0GjhFmYJkf/vCHpWVR/5tb3kjr/6pH2p87gOaTVjxCeOSzpSMAn4geAQotOUwz8Q1Jo/6v0D5fAPnWiDiGbNARgG9Ej8CFkDQ2KmH2Lcv/K4TPEUAxZRXHkD06AvCN6JEjJJP5wucFIAt0BIqLjgB8I3rkFElmmPhcAGSNjkBx0RGAb0SPAiD5bCzefwCNREeguOgIwDeiR8GQlGaD9xlAKOgIFBcdAfhG9CgwktV08X4CCBEdgeKiIwDfiB5NgiQ2Gd43AKGjI1BcdATgG9GjCZHcRuP9AZAndASKi44AfCN6NDmS3m/xPgDIKzoCxUVHAL4RPVDSbMlws/2/AIqJjkBx0RGAb0QPlFXUJLmo/xeA5kVHoLjoCMA3ogeqynvynPfXDwBR6AgUFx0B+Eb0QE3yklTn5XUCQL3oCBQXHQH4RvRAYqEl26G9HgDIAh2B4qIjAN+IHkhFo5LwRj0vAISCjkBx0RGAb0QPpM53cu57/wCQJ3QEiouOAHwjesCrtJL2tPYDAEVDR6C46AjAN6IHMlNrMl/r9gDQjOgIFBcdAfhG9EBDVEryd+/eXXY5yT8AlEdHoLjoCMA3ogcarlKngOQfAKrr0aOHThh5FO8hny0dAfhERwAAgJybNm2aThh5FO9x9dVX0xGAN3QEAAAogIULF+qEkUfxHvPnz3c/biAVdAQAAECuyWk09UpjH7a09wf4wLcUAADkWhpJdxr7sKW9P8AHvqUAACDX0ki609iHLe39AT7wLQUAALmWRtKdxj5sae8P8IFvKQAAyLU0ku409mFLe3+AD3xLAQBArqWRdKexD1va+wN84FsKAAByLY2kO4192NLeH+AD31IAAJBraSTdaezDlvb+AB/4lgIAgFxLI+lOYx+2tPcH+MC3FAAA5FoaSXca+7ClvT/AB76lAAAg19JIutPYhy3t/QE+8C0FAAC5lkbSncY+bGnvD/CBbykAAMi1NJLuNPZhS3t/gA98SwEAQK6lkXSnsQ9b2vsDfOBbCgAAci2NpDuNfdjS3h/gA99SAACQa2kk3Wnsw5b2/gAf+JYCAIBcSyPpTmMftrT3B/jAtxQAAORavUl3jx499CNN9b4mIAt8SwEAQK7Vm3TXW76cJPv8wx/+oG6++WbVr18/XV7+yrwsB3yo/VsKAAAQkCRJt63e8uXUss8zZ86oGTNm6DKVHrJetgPSFP9bCgAAEKBaku5y6i1fTi37rNYJsDsDUf74xz+q0aNHq06dOqk+ffqoW2+9VX355Zd6nbuvLl26qL/5m79Rf/rTn1qt//zzz/WyTZs2tViO4uFTBQAAuVZvklpv+XLi7lNO+3GT9KhHpdOE/vu//1t17NhRTZo0SR08eFCtXr1abz927Fi93pQX586dUy+99JKeHzFiRIv18njuuef0sscee6zFchQPnyoAAMi1epPUesuXE3efP/rRj1ok29Uesn05//iP/6jXy68C5ZjyxrFjx/S8/Hpgrx84cKC67bbb9LJ/+Id/UIMGDWpVFsXBpwoAAHKt3iS13vLlxN1n3759WyX7UQ/ZvpyePXvq9YcOHXJXaaa8kGsNzC8GciqRvf6f/umf1JAhQ/Syiy++WP3zP/9zi7IoFj5VAACQa/UmqfWWLyfuPuV0HjfZj3rI9uW0a9dOr//mm2/cVZq7H3mMHz9e/e///m+L9U8++aT+a64P+Pd///fSOhQPnyoAAMi1epPUesuXI+MSuIm3+xg8eHBqvwiY55NTfsox5c+ePavWrFmj2rdvry8W/r//+78W6z/88EP99+///u/1348++qi0DsXDpwoAAHKt3iS13vL1SOsageuvv16vf/fdd91VmpvML1y4UM/fddddrdZfdNFFqk2bNvqvuw7FwqcKAAByrd4ktd7y9UjrrkH/9V//pTp06KCP5B84cEA988wzevsJEybo9eWS+WHDhulfBv7nf/6nxfobbrhBT9944416vlxZFAOfKgAAyLV6k9R6y9crrXEE/vM//1ONHDlSdwjk4uF//dd/VYcPH9bryiXzv/71r/UyueWovf7xxx/X0/JXlCtbdHKthVxQfc011+iLpuX/7927t7r66qvVb37zG3X06FG3SC4116cKAAAKp94ktd7y9WJk4bDIOAzjxo3Td1R6/vnn1RdffKGXy99XXnlF3Xzzzbpz8Nvf/tYpmT+N/eYDAADUqd5Evt7yaZHTfiTJ7Nevn35N8lfmK50OhPTJLwHSCZg5c2bFOzCJLVu2qMsuu0wtW7bMXaWtXLlSj8Egd3m67rrrgv1VJbxXBAAAUIN6E6x6y6M4Vq1apX8JiOoEGJ988om+oHrr1q3uKnXeeefp79Xu3bvV119/7a4OBt98AACQa/Um8vWWR3FMnjxZvfDCC+7iiuQ6i1tvvbXFMve0LnvZe++9p8d8+P73v687G6dPn9YXbcsyWSenf82aNUtdeOGFqk+fPmrevHmxOiVJ8c0HAAC5Vm8iX295FEevXr1K1wTEsWPHDnXppZe6i1udCmTP33fffXp68eLF6le/+pWevv/++/W6hx9+WM/L7V2feOIJPW0u2vaBbz4AAMi1ehP5esujOOSOS3KUPq6TJ0+qTp06uYsjOwInTpzQ1w/IUf/zzz9fDRgwQB0/flyvk2nZ7ssvv1T79u3T00OGDCntJ2188wEAQK7Vm8jXWx5+xRmlOY2HjPQst12VBDyunTt36ou6XWaflebnz59fWnbPPfeUlktHRJbJKULykOnOnTuX1qeNbz4AAMg1O8FKot7y8CvLz0fGCZBbhMa1ZMkSNXXqVHdxq8Tfnpfbk0rnpm/fvuqCCy7Qif6uXbv0OrkTkWwnvwjs3btXTw8dOrS0n7Rl984CAAB4UG+iWGv5ZhlsKhS1fj71kM+vXGJfzqlTp/QpPm+88Ya7KrIjcNttt+lpucWoXAsg0+Y5586dq+ftawRk2pfs3lkAAAAP6k0UaynfTINNhaKWz6deR44c0Z+fjBNQzfTp09VNN93kLtYqdQTeffdd1bZtWzVixAh17tw5dfbsWTV8+HDVpk0btXnzZt25uPvuu0t3DXrooYf0dr5k984CAAB4UG+iGLd8WoNNyRHksWPHuovLchPKStwBrIokzv+fJunEyecn4wSUI8m6dAIkmT927Ji7OleyfWcBAABSVm+iGLd8WoNNxU3uRdxt8zKAVRJx/v+0LV++XH9+Mk7Atm3b9LLt27erpUuXqssvv1z/EpD3ToDI/p0FAABIUb2JYtzyvgabkrvDzJ49W9/DXi4gnTNnjl5mbx+1XaV9VhqYymy3Zs0aNXLkSNW/f//SBbKVnsN48MEHS9NZifv5pO2DDz7Qn5+5gFfGC5g2bVrZawLyqjHvLAAAQErqTRTjlvc12NSCBQv0vNyBZsWKFXpaEnd327jbiaiBqcy2corTunXr9LScVlTtOUzZrDsD9v+FdPHOAgCAXKs3UYxb3tdgU3L/epk/cOCAPt1EpgcOHNhq27jbiaiBqcy2sh85312m5QLWas9hl82yM2D/X0gX7ywAAMi1ehPFOANW+RxsSjoL7vO1b9++1bZxtxNRA1O528Z9Dntb0xEw1yb4fMgddeBHfTUHAACgwSRZzIKvwabk9CGZl1tXuuxt424nogamcreN+xxC1mX5a4CwXyvSxTsLAAByLatEMa3BpmQ0WXnNhw8f1vP2IFIbN27U0+b2onaSHnc7d1t3YCp327jPIbLuBAj7tSJdvLMAACDXskoU0xps6tlnn1VdunRRkyZN0vNyLcGMGTP0HX5k+ZQpU9SePXv0OjtJj7udiBqYyt027nM0Slafr61ZRo/O/p0FAABIUZaJYjMNNhWKLD9f0UyjR2f7zgIAAKQs60SxWQabCkWWn29ao0c3kvuLT5R4WwEAAAQqbtKTpmYYbCoUWX6+aY0e3Uh0BAAAQNOIm/Qgn7L8fNMYPVqYZPyZZ55RV155pb5O47HHHtMXYUvnQUZzfvXVV/W25UaBlnVSXq5RsE2cOFEvl1OUKo0ATUcAAAA0jbhJD/Ipy8837dGj77zzTvX222+X5uVC7HfeeUdPy69JotIo0N/73vf0GAofffSR3k7+yrzcBvaXv/yl3q7cCNB0BAAAQNOIm/Qgn7L8fNMePVpGaD579mxpXsZ1MAO8mdGcK40C/eSTT+rpn/70p3o76UTIvFyLEjUCNB0BAADQNOImPcinOCM/p/HwOXp01HylUaC//vprfRpR165d1Weffab/yulDx48fjxwB2n2uKPG2AgAACFTcpAeoxtfo0VHzUaNA/+IXv9Dzo0aN0n9/9rOf6eVRI0C7zxUl3lYAAACBipv0GM0yWBRql9bo0W4yHjUfNQq0/DrRsWNHvUyO+O/atatVGXcEaPe5osTbCgAAIFBxkx7RTINFoXZpjR7tJuNR81GjQItbbrlFb/vDH/6wtCxqBGj3uaLE2woAACBQcZOeIgwW5Yqb9NnbxS3TrJpp9Gi+BQAAINfiJrVFGCwqKZL/2jTL6NF8IwAAQK7FTXDTGixK7uxSaTCn9957T40ZM0bf4aV79+5q0qRJ+s4ywiTjTz/9tL4Tzvjx4/XtH6vtU25n+cADD6hLLrlE73fChAnq008/bbFPIfe0l3XdunXTd5UZPny4ev3111ttV27aflTbV9TriSpXbuCsOJ2yRmmG0aPj1RwAAIBAxe0IpDVY1IIFC/RzlhvM6YorrtDzMvjTa6+9pqflji/CJNpyWsnixYv19O233151n/Pnz9fzUmbDhg16Wn7ZsPcp5HlWrlypTpw4oU9vkuUygq27nT1trF27Vi+74YYb9HzUvqJeT1S5SgNnoXHi1RwAAIBAuUltJWkNFhU1mJN0NmRejoTLgFByz3fDJOByJ5j9+/fraTmqXm2fciqKzB86dKi0L8Ps09i8ebM+6j5s2DC9vF27dq22c8vIa5RkXY7um7vSiEr7ino9olK5SgNnoXHi1RwAAIBAxRlwKs3BoqIGc5LbksppMWa5nAZjTkcyy+yBo+TWkNX2adbJCLX/X3t3jKpADIQB+AreytKLeAMbOwtb72FjZ2fhBbyC9/DxL0RWwdlG3gr5PhCyrBlSWGRiknnXvhtZaU8716Jer9eXd5/asdlshues0jdVrGo8Vb9PhbOYj0QAAOjCt4pFVcWcIttijsfjcBVpvpdkINqk+H6/P/8RaNtmqphtBT593o0n2lnRbzHyGb/71M4B2CQjuQFnPLGvYlXjqfpVhbOYh0QAAOjCt4pFVcWcslc+z6fT6XG73YZ2tshEmxTnXECuJk17vV5Pxtxut8Pz4XB4XC6Xof1+7iBaMnE+nx+73e7l3ad27p9PO3v9x6pY1XiqflXhLOYhEQAAuvCtYlFVMafssV+tVo/FYjGsjqduQRKCaJPi/X7/vFEoBc6mYiYpyZ77jD0xl8vl84778UQ7B35zRiFVkhNr/G6qPf5MxarGM9WvKpzF/5MIAADdmLNY1HhSDL/ArxEA6MpcxaIkAvwav0YAoDs9FIuCKRIBAADokEQAAAA6JBEAAIAOSQQAAKBDf7dm4lthRZBZAAAAAElFTkSuQmCC;" vertex="1" parent="1">
          <mxGeometry x="50" y="160" width="770" height="528" as="geometry" />
        </mxCell>
      </root>
    </mxGraphModel>
  </diagram>
</mxfile>
